<?xml version="1.0" encoding="utf-8"?>
<!-- Generator: Adobe Illustrator 19.0.0, SVG Export Plug-In . SVG Version: 6.00 Build 0)  -->
<svg version="1.1" id="Layer_1" xmlns="http://www.w3.org/2000/svg" xmlns:xlink="http://www.w3.org/1999/xlink" x="0px" y="0px"
	 viewBox="-105 25 512 510" style="enable-background:new -105 25 512 510;" xml:space="preserve">
<g transform="translate(0.000000,630.000000) scale(0.100000,-0.100000)">
	<path d="M-1050,5641c0-225,3-416,6-425s10-16,16-16c5,0,6,5,3,10c-3,6-1,10,5,10c7,0,9-7,6-16s-6-17-6-20c0-2-7-1-15,2
		c-12,5-14-104-15-845v-851h429c334,0,430,3,434,13c4,9,6,9,6,0c1-10,176-13,841-13h840l1-177c1-98,1-182,0-187s5-6,14-3
		c17,7,21-18,5-28c-6-3-10-11-10-16c0-6,4-8,9-5c11,7,20-14,14-31c-3-7-11-13-19-13c-9,0-14-11-14-30c0-23,4-28,18-24c15,5,15,4,1-5
		c-15-9-17-52-18-396c0-304,2-384,12-379c9,6,9,5,0-7c-9-11-12-166-13-627V950l1282,3l1283,2l3,1278l2,1277H2970
		c-605,0-1100-4-1100-8s5-13,12-20s8-12,2-12c-5,0-15,5-21,11c-8,8-13,8-17,0c-12-18-24-12-19,9c5,17,0,20-30,20c-19,0-38-6-40-12
		c-4-10-6-10-6,0c-1,9-31,12-116,12h-115v370v370h-30c-16,0-30,5-30,10c0,6,15,10,33,10c24,0,28,3,17,10c-10,6-11,10-2,10
		s12,71,12,320c0,298-1,320-17,320c-17,1-17,1-1,11c16,9,18,46,18,509c0,492-1,500-20,500c-11,0-20-4-20-10c0-5-7-10-15-10
		c-13,0-14,4-4,21c6,13,17,19,28,16c10-2,18,1,19,7s5,26,8,44l6,32H236h-1286V5641z M1032,5788c29-16,39-87,14-107
		c-13-11-12-15,5-32c25-25,25-79-1-112c-40-50-148-39-170,18c-15,39-13,45,18,45c19,0,30-7,37-22c19-44,75-30,75,19c0,18-8,28-30,36
		c-34,13-42,47-10,47c10,0,24,9,30,20c8,15,6,24-10,40c-22,22-46,18-55-11c-4-12-16-19-31-19c-32,0-32,33,1,65
		C932,5803,991,5809,1032,5788z M1298,5773c3-22,0-23-57-23c-34,0-61-3-61-7c0-5-3-18-6-29c-5-20-3-21,38-17c40,5,47,2,72-27
		c23-27,26-40,24-82c-3-44-7-52-33-66c-16-8-50-16-73-16c-36-1-48,4-68,27c-33,39-31,57,6,57c20,0,30-5,30-15c0-8,12-18,27-21
		c30-8,53,15,53,50c-1,27-41,58-61,45c-8-5-26-9-41-9c-26,0-27,1-25,65c1,36,7,65,12,65c6,0,3,5-5,10c-10,6-21,4-35-8
		c-20-17-20-17-2,4c15,19,28,21,110,20C1290,5795,1295,5794,1298,5773z M-104,5461c-3-5,3-11,14-14s22-1,25,4s34,6,68,3
		c189-16,259-39,337-110c49-45,100-144,100-196c0-26,4-37,11-32c7,4,7-1-1-16c-7-13-10-38-7-56c3-19,2-34-4-34c-5,0-9-6-9-13
		c0-31-81-139-125-165c-43-26-56-42-35-42c6,0,29-9,51-19c22-11,46-19,52-17c7,1,9,1,4-2c-4-2,4-13,18-24s39-41,57-66
		c17-26,40-55,50-65c10-10,18-23,18-30s-4-6-10,3c-8,13-10,12-10-2c0-10,7-18,15-18c8,0,15-7,15-15s-3-14-7-14c-5,1-17,1-28,0
		c-16-2-14-4,10-16c17-7,25-14,19-14c-7-1-13-30-16-70c-10-133-98-265-211-316c-79-36-158-44-453-46l-271-1l-22-29
		c-28-38-60-39-57-1l2,27l-77,3c-47,2-80-1-84-8c-12-19-25,0-25,36c0,22,7,40,20,51c15,13,20,30,20,65c0,26-4,49-9,52s-7,16-4,29
		c3,16,2,18-5,8s-11-10-17-1c-4,7,1,13,14,17c17,4,21,12,19,39c-1,20-7,34-15,34c-7,0-13,7-13,16c0,8,5,12,11,9c6-4,5,3-3,15
		c-11,18-11,22,5,31c15,9,17,26,17,124c0,71-4,116-11,121c-8,4-8,9,0,17c13,13,15,114,2,122c-6,3-15-3-21-12c-9-15-10-14-4,7
		c4,14,12,28,18,33c8,5,6,10-4,17c-13,8-13,11-1,19c11,7,7,22-23,81c-40,80-43,88-21,70c8-7,15-18,15-25c0-6,8-20,19-29
		c14-13,20-14,23-4c7,21,10,387,3,408c-3,10-12,17-19,14c-9-4-12,2-9,18l4,23l276-3c190-3,279,0,286,7C-104,5472-97,5473-104,5461z
		 M1250,4930v-130h-61c-129,0-205-42-234-130c-9-27-16-60-15-72c1-13,2-139,1-280l-1-258H810H680v83c0,71,3,84,20,94
		c17,11,18,10,13-5c-6-16-5-16,14,1c12,10,22,14,24,8s9-7,16-3c7,5,9,19,4,42c-7,34-8,35-49,32l-42-4v271c1,249,2,271,18,271
		c16,1,16,1,0,11c-15,8-18,24-18,89v80h125h125v-77c0-84-2-83,45-10c12,19,14,27,5,25c-7-2-14,2-17,9c-3,8,3,11,18,8
		c14-3,36,5,57,22c47,36,97,52,160,53h52V4930z M3588,3253c3-22,0-23-56-23c-58,0-60-1-64-29s-4-28,38-23c36,4,47,0,68-21
		c49-49,27-145-39-167c-48-16-100,2-120,40s-19,40,13,40c16,0,32-8,40-20c23-37,72-19,72,27c0,37-28,63-57,52c-13-5-35-9-48-9
		c-21,0-24,4-20,28c2,15,7,47,10,72c3,24,11,48,18,52c7,5,41,7,77,6C3579,3275,3585,3273,3588,3253z M3807,3258c13-12,23-27,23-35
		c0-15-46-18-55-3c-3,6-17,10-30,10c-25,0-45-25-45-55c0-12,4-14,19-5c33,17,61,11,92-19c74-74-14-204-108-159c-54,26-78,119-53,210
		C3670,3274,3757,3305,3807,3258z M1785,2920c-4-6,10-9,34-8c23,1,41,5,41,10c0,12,479,10,599-2c68-7,114-18,139-31
		c52-29,60-38,42-49s-8-22,24-25c13-2,32-6,43-9c22-8,96-113,88-125c-3-5,5-7,17-4c20,4,21,3,6-7c-10-6-18-21-18-33c0-18,2-20,11-7
		c9,12,10,11,4-5c-4-11-9-45-12-75c-5-60-35-140-53-140c-6,0-9-4-5-9c7-13-48-75-91-102l-35-21l55-28c71-36,126-88,162-153
		c39-73,46-203,14-292c-12-33-22-67-24-76c-1-9-32-43-69-77c-77-69-148-101-241-107c-212-15-236-15-236,3c-1,16-1,16-10,0
		c-9-15-39-16-285-17l-275-1l-1,193c0,105-1,266-1,357c0,92-5,171-11,178c-6,8-6,16,1,25c16,19,13,458-4,481c-7,10-17,15-23,11
		c-7-4-8,1-2,16c8,24,31,38,31,20c0-6-5-11-11-11c-5,0-7-4-4-10c15-24,26-7,25,38c-4,104-4,102,41,102
		C1775,2930,1789,2926,1785,2920z M3526,2530c139-18,240-76,287-164c20-37,22-58,25-241c3-159,7-202,18-208c8-4,14-20,14-34
		c0-21-2-24-15-13s-15-3-15-118c0-126,1-132,26-161c32-39,26-61-18-62c-57-1-193,2-212,5c-21,3-36,24-36,52c0,41-23,46-63,13
		c-64-53-144-83-217-82c-119,1-177,10-212,31c-52,32-96,83-113,131c-19,55-19,176,0,230c17,50,53,103,65,96c4-3,10,4,13,14
		c6,24,97,68,166,81c30,5,60,15,67,20c7,7,13,7,16,1c2-6,35-4,85,4c149,24,173,39,173,107c0,67-85,108-197,95c-46-5-100-37-95-56
		c1-6-2-11-8-11c-5,0-13-15-18-32l-8-33l-123-3l-124-3l7,50c11,83,25,113,50,108c18-5,18-4,5,5c-15,10-15,14-1,37
		c37,66,151,125,270,140C3430,2541,3445,2541,3526,2530z"/>
	<path d="M-167,5222l-202-2v-160l-1-160h33c169-3,359,3,389,11c46,12,98,54,98,80c0,10,5,19,10,19c15,0,12,74-5,96
		c-8,10-15,29-15,40c0,23-28,46-70,59c-14,4-27,10-30,14C37,5222-56,5224-167,5222z"/>
	<path d="M-364,4662c-4-7-9-290-7-354c1-16,15-18,152-18c104,0,148-3,144-11c-5-7-2-7,11,0c11,6,56,15,102,20c66,7,90,14,118,36
		c48,37,67,85,62,157c-6,84-52,139-134,159C36,4664-357,4673-364,4662z"/>
	<path d="M2020,2690c0-5-7-7-15-4c-13,5-15-6-15-71c0-53,3-74,11-69s8,1,0-14c-11-21-10-69,4-130l8-34l159,4c126,3,161,7,168,18
		s10,11,10,2c0-19,74-8,114,18c83,51,89,177,13,249c-22,19-41,24-129,32C2206,2702,2020,2702,2020,2690z"/>
	<path d="M1990,2076c0-36-4-67-10-67c-5-1-14-2-19-3c-13-1-24-14-27-29c-2-7-6-25-9-42c-3-16-12-33-18-38c-8-6-8-7,3-5
		c8,3,24,22,35,44c11,21,25,38,30,36c6-1,11-23,13-49c2-33,6-43,12-33c6,9,10,10,10,3c0-6-4-15-10-18c-5-3-10-28-10-56v-49h93
		c77,0,94,3,94,15c0,8-5,15-11,15c-7,0-7,3,0,10c14,14,46,1,40-16c-8-20,3-17,22,7c22,27,57,17,41-12c-9-18-5-19,68-19
		c94,0,142,12,183,47c40,33,66,81,51,96c-6,6-11,16-11,22c0,5,5,3,10-5c17-27,12,68-6,103s-60,77-78,77c-6,0-5,4,3,9
		c17,11,41,9-266,17l-233,6V2076z"/>
	<path d="M3545,1990c-39-16-60-23-67-22c-5,1-8-5-8-14c0-13-3-14-15-4c-11,9-27,9-72,0c-104-21-149-65-147-142c2-50,30-89,78-107
		c78-30,213,26,250,104c20,42,23,119,6,140c-10,12-10,15-1,15c7,0,9,5,6,10c-3,6-1,10,4,10c6,0,11,5,11,10
		C3590,2002,3573,2002,3545,1990z"/>
</g>
</svg>
